<svg width="24" height="24" viewBox="0 0 24 24" fill="none" xmlns="http://www.w3.org/2000/svg">
<path d="M19.6219 4.46487C19.3835 4.22654 19.0602 4.09265 18.7231 4.09265C18.386 4.09265 18.0627 4.22654 17.8243 4.46487L11.9941 10.295L6.16397 4.46487C5.92557 4.22654 5.60227 4.09265 5.26517 4.09265C4.92806 4.09265 4.60476 4.22654 4.36636 4.46487C4.12803 4.70327 3.99414 5.02657 3.99414 5.36368C3.99414 5.70078 4.12803 6.02408 4.36636 6.26248L10.1965 12.0927L4.36636 17.9228C4.12803 18.1612 3.99414 18.4845 3.99414 18.8216C3.99414 19.1587 4.12803 19.482 4.36636 19.7204C4.60476 19.9588 4.92806 20.0927 5.26517 20.0927C5.60227 20.0927 5.92557 19.9588 6.16397 19.7204L11.9941 13.8903L17.8243 19.7204C18.0627 19.9588 18.386 20.0927 18.7231 20.0927C19.0602 20.0927 19.3835 19.9588 19.6219 19.7204C19.8603 19.482 19.9941 19.1587 19.9941 18.8216C19.9941 18.4845 19.8603 18.1612 19.6219 17.9228L13.7918 12.0927L19.6219 6.26248C19.8603 6.02408 19.9941 5.70078 19.9941 5.36368C19.9941 5.02657 19.8603 4.70327 19.6219 4.46487Z" fill="#FCFDFD"/>
</svg>
