<svg width="32" height="32" viewBox="0 0 32 32" fill="none" xmlns="http://www.w3.org/2000/svg">
<path fill-rule="evenodd" clip-rule="evenodd" d="M15.7931 28.8825C10.8706 28.8825 6.66699 28.1165 6.66699 25.0488C6.66699 21.9811 10.844 19.1492 15.7931 19.1492C20.7155 19.1492 24.9191 21.9536 24.9191 25.0214C24.9191 28.0878 20.7421 28.8825 15.7931 28.8825Z" stroke="#171725" stroke-width="1.5" stroke-linecap="round" stroke-linejoin="round"/>
<path fill-rule="evenodd" clip-rule="evenodd" d="M15.7833 14.8981C19.0136 14.8981 21.6318 12.28 21.6318 9.04965C21.6318 5.81935 19.0136 3.19995 15.7833 3.19995C12.553 3.19995 9.93363 5.81935 9.93363 9.04965C9.92272 12.269 12.5227 14.8872 15.7421 14.8981C15.7567 14.8981 15.77 14.8981 15.7833 14.8981Z" stroke="#171725" stroke-width="1.5" stroke-linecap="round" stroke-linejoin="round"/>
</svg>
